<svg width="140" height="80" viewBox="0 0 140 80" fill="none" xmlns="http://www.w3.org/2000/svg">
<g clip-path="url(#clip0_983_1192)">
<path d="M39.4806 33.3406H50.9135V35.3261H39.4806V33.3406Z" fill="#F89521"/>
<path d="M39.4806 37.3109H50.9135V35.3261H39.4806V37.3109Z" fill="white"/>
<path d="M39.4806 37.3109H50.9135V39.2965H39.4806V37.3109Z" fill="#08A650"/>
<mask id="mask0_983_1192" style="mask-type:luminance" maskUnits="userSpaceOnUse" x="0" y="10" width="140" height="61">
<path d="M0.181763 70.5584H139.444V10.5583H0.181763V70.5584Z" fill="white"/>
</mask>
<g mask="url(#mask0_983_1192)">
<path d="M21.6065 20.6372C26.9395 20.6372 31.7705 22.8 35.2646 26.2956C38.7613 29.7923 40.9241 34.6207 40.9241 39.9548C40.9241 45.2893 38.7613 50.1192 35.2646 53.6144C31.7705 57.1096 26.9395 59.2717 21.6065 59.2717C16.2724 59.2717 11.4436 57.1096 7.94725 53.6144C4.45165 50.1192 2.28882 45.2893 2.28882 39.9548C2.28882 34.6207 4.45165 29.7923 7.94725 26.2956C11.4436 22.8 16.2724 20.6372 21.6065 20.6372ZM33.9777 27.5832C30.8128 24.4179 26.4382 22.4589 21.6065 22.4589C16.7747 22.4589 12.4002 24.4179 9.23413 27.5832C6.06957 30.7485 4.11127 35.1234 4.11127 39.9548C4.11127 44.7858 6.06957 49.1611 9.23413 52.3268C12.4002 55.4914 16.7747 57.4508 21.6065 57.4508C26.4382 57.4508 30.8128 55.4914 33.9777 52.3268C37.1434 49.1611 39.1013 44.7858 39.1013 39.9548C39.1013 35.1234 37.1434 30.7485 33.9777 27.5832ZM68.5684 20.6372C73.901 20.6372 78.7309 22.8 82.2261 26.2956C85.7228 29.7923 87.8853 34.6207 87.8853 39.9548C87.8853 45.2893 85.7228 50.1192 82.2261 53.6144C78.7309 57.1096 73.901 59.2717 68.5684 59.2717C63.2343 59.2717 58.4044 57.1096 54.9092 53.6144C51.4136 50.1192 49.2507 45.2893 49.2507 39.9548C49.2507 34.6207 51.4136 29.7923 54.9092 26.2956C58.4044 22.8 63.2343 20.6372 68.5684 20.6372ZM80.9392 27.5832C77.7747 24.4179 73.3994 22.4589 68.5684 22.4589C63.7366 22.4589 59.3621 24.4179 56.1968 27.5832C53.0311 30.7485 51.0724 35.1234 51.0724 39.9548C51.0724 44.7858 53.0311 49.1611 56.1968 52.3268C59.3621 55.4914 63.7366 57.4508 68.5684 57.4508C73.3994 57.4508 77.7747 55.4914 80.9392 52.3268C84.1049 49.1611 86.0632 44.7858 86.0632 39.9548C86.0632 35.1234 84.1049 30.7485 80.9392 27.5832Z" fill="white"/>
<path d="M1.47094 38.9099C1.01561 39.1192 0.474438 38.9211 0.264686 38.4654C0.055308 38.01 0.254236 37.4689 0.709568 37.2591L55.8096 11.8907C55.844 11.8743 55.8787 11.862 55.9141 11.8501C59.9412 10.2557 63.7417 10.2187 66.6656 11.2947C68.4059 11.9355 69.8473 12.9746 70.8572 14.3178C71.875 15.6722 72.4494 17.3286 72.4475 19.1944C72.4457 21.9334 71.1909 25.1174 68.2536 28.4253C67.9218 28.8007 67.3493 28.8351 66.9735 28.504C66.5976 28.1722 66.5633 27.5982 66.8955 27.2235C69.5133 24.2743 70.6311 21.5136 70.634 19.1944C70.6355 17.7399 70.1921 16.4519 69.405 15.4065C68.6104 14.3484 67.4534 13.5236 66.0393 13.0026C63.504 12.0688 60.1655 12.1177 56.5811 13.5359L56.5706 13.5419L1.47094 38.9099ZM84.288 39.0606C83.8316 39.2674 83.2945 39.0681 83.0863 38.6124C82.878 38.156 83.0792 37.6178 83.5349 37.4091L122.81 19.3839C122.834 19.3731 122.859 19.3634 122.883 19.3541C126.921 17.7496 130.732 17.7086 133.663 18.7887C135.401 19.4295 136.843 20.4674 137.853 21.8106C138.873 23.1654 139.446 24.8214 139.444 26.6872C139.443 29.427 138.187 32.6102 135.251 35.9189C134.919 36.2939 134.345 36.329 133.97 35.9969C133.595 35.6658 133.56 35.0918 133.891 34.7167C136.511 31.7675 137.629 29.0079 137.631 26.6872C137.631 25.2327 137.189 23.9459 136.402 22.8997C135.607 21.8416 134.45 21.0164 133.036 20.4954C130.495 19.559 127.145 19.612 123.552 21.0399L84.288 39.0606Z" fill="white"/>
</g>
<mask id="mask1_983_1192" style="mask-type:luminance" maskUnits="userSpaceOnUse" x="-5" y="5" width="150" height="71">
<path d="M-4.5 76H144.126V5.11671H-4.5V76Z" fill="white"/>
</mask>
<g mask="url(#mask1_983_1192)">
<path d="M16.6335 41.0496H16.5656L16.6335 41.1071L16.3875 41.234L16.1572 41.321L15.8822 41.3777H15.6661C15.1768 41.4049 14.7689 41.2232 14.4427 40.8317C14.4158 40.9399 14.3792 41.0276 14.3341 41.0903C14.1788 41.4005 13.9948 41.6356 13.7761 41.7994L13.4641 41.9767L13.4921 42.0316L13.7257 42.3585L14.0291 42.7687L14.5438 43.4263L14.8028 43.7279L15.1861 44.1104C15.2585 44.2011 15.363 44.2791 15.5 44.343L14.8443 44.7248L14.393 44.2329L14.0519 43.7951L13.7108 43.3185L12.8766 41.9928L12.6307 41.5692L12.3437 41.0089L12.2216 40.5581L12.235 40.4211L12.3306 40.2991L12.4676 40.2162L12.6034 40.189L13.5872 40.1755V38.3725H11.7704V37.5936H15.8822V38.3725H14.4748V40.476L14.8711 40.6264L15.3085 40.6809C15.6818 40.6809 16.0057 40.5947 16.2785 40.4211C16.3607 40.376 16.4782 40.2804 16.6335 40.1345V41.0496ZM21.3335 38.3042H21.2644V38.3725H20.1993V44.9718L19.3524 44.343V42.4836L19.2841 42.5261L18.9288 42.7034L18.3958 42.9213L17.973 42.9762C17.4352 42.9762 16.9746 42.7672 16.5928 42.3481C16.5193 42.2663 16.4513 42.1618 16.3875 42.0334L16.1823 41.6647C16.1009 41.4005 16.0602 41.1276 16.0602 40.8451C16.0602 40.1979 16.3875 39.7478 17.0437 39.4929C17.2433 39.4101 17.6266 39.338 18.1909 39.2742C18.3369 39.2559 18.491 39.247 18.6552 39.247L19.1748 40.08H18.7123C18.4776 40.0621 18.2589 40.0845 18.0611 40.1483C17.599 40.192 17.228 40.3711 16.9477 40.688C16.8298 40.8492 16.7705 41.0336 16.7705 41.2411C16.7705 41.5371 16.8522 41.7853 17.0134 41.9812C17.0593 42.0349 17.1556 42.1044 17.3004 42.1839C17.4531 42.2301 17.6173 42.2533 17.7905 42.2533C17.9704 42.2533 18.1409 42.2193 18.2977 42.1566C18.4578 42.0928 18.6508 41.9782 18.8762 41.8151C19.0583 41.6878 19.1748 41.583 19.23 41.4997C19.2934 41.4456 19.3334 41.3919 19.3524 41.3366V38.3725H15.6903V37.5936H21.3335V38.3042ZM25.3363 38.3042H25.2673V38.3725H21.0323V37.5936H25.3363V38.3042ZM26.0465 42.2663H25.9775L26.032 42.307C26.0051 42.3585 25.9323 42.419 25.8137 42.4798L25.418 42.6963C25.29 42.7582 25.0803 42.8486 24.7892 42.9646C24.6066 43.0169 24.4342 43.0453 24.27 43.0453C23.7691 43.0453 23.3145 42.9079 22.9044 42.6377C22.4214 42.3205 22.1803 41.9375 22.1803 41.4945L22.2072 41.2508C22.2344 41.0407 22.3251 40.8421 22.4804 40.6518C22.5711 40.5167 22.6853 40.4125 22.8226 40.3398H21.5656L21.2099 39.4791H25.1038L25.4587 40.3398H24.0923C24.0647 40.3398 23.9919 40.3711 23.8733 40.4375C23.7281 40.5219 23.6004 40.6156 23.4915 40.7182L23.2317 40.9548L23.041 41.178L22.9312 41.4273C22.913 41.4661 22.9044 41.5389 22.9044 41.6505C22.9044 41.7621 22.9268 41.8793 22.9719 42.0025C23.0085 42.0562 23.082 42.1174 23.191 42.1805L23.4915 42.2663H24.0102C24.2924 42.2843 24.6156 42.1876 24.9806 41.9767C25.1176 41.9013 25.231 41.8278 25.3217 41.7558L25.7315 41.4236C25.8043 41.3687 25.9099 41.2303 26.0465 41.0089V42.2663ZM31.443 38.3042H31.3739V38.3725H30.0079V39.3149C30.2722 39.5336 30.5043 39.8385 30.7047 40.23C30.7954 40.4032 30.8637 40.5883 30.9089 40.7831C30.9555 40.9795 30.9779 41.1728 30.9779 41.3643C30.9779 42.0741 30.7641 42.6847 30.3356 43.1942C29.8616 43.7589 29.2566 44.0421 28.5188 44.0421C27.6719 44.0421 26.9766 43.8395 26.4354 43.4334C25.8935 43.0285 25.6222 42.4798 25.6222 41.7879C25.6222 41.6602 25.6405 41.5423 25.6767 41.4326C25.8043 41.187 25.9775 40.9948 26.1966 40.8582L26.4832 40.7089L25.6767 39.9841V38.3725H25.1176V37.5936H31.443V38.3042ZM30.3494 40.9824C30.3494 40.6085 30.2852 40.3398 30.158 40.1755C30.0307 40.011 29.8575 39.9296 29.6384 39.9296C29.5295 39.9296 29.4425 39.9475 29.3787 39.9841C29.279 40.002 29.1876 40.1345 29.1059 40.3804L29.0652 40.6402C29.0652 40.8406 29.1059 41.0362 29.1876 41.2288C29.3066 41.437 29.4481 41.6009 29.6116 41.7196C29.6384 41.7558 29.712 41.8099 29.8299 41.8827L30.1303 42.0741L30.158 41.9517L30.1856 41.8968L30.2121 41.8278L30.3084 41.4456C30.3356 41.3366 30.3494 41.1818 30.3494 40.9824ZM29.8706 42.4701C29.7803 42.4515 29.6836 42.4108 29.584 42.3481C29.1103 42.0838 28.7509 41.7319 28.505 41.296C28.3769 41.078 28.3135 40.8582 28.3135 40.6402C28.3135 40.3304 28.4008 40.0621 28.5733 39.834C28.6729 39.6881 28.7737 39.5881 28.8748 39.5336L29.229 39.3287V38.3725H26.5239V39.8479L26.9845 40.476H27.0389L27.2278 40.4077L27.4323 40.3532L27.6357 40.3121L28.1093 41.1187C27.9197 41.1187 27.7555 41.1455 27.6219 41.2004C27.5577 41.2101 27.4054 41.2642 27.1595 41.3643C26.7359 41.5371 26.506 41.7834 26.4694 42.1025C26.4694 42.3205 26.5015 42.4933 26.5649 42.6209C26.7109 42.9124 26.9949 43.1356 27.4207 43.2908C27.6305 43.345 27.8582 43.3726 28.1023 43.3726C28.4553 43.3726 28.842 43.214 29.2585 42.8948L29.5978 42.6343L29.8706 42.3888V42.4701Z" fill="white"/>
<path d="M62.8274 38.3042H62.7591V38.3721H61.9253L61.4741 37.5935H62.8274V38.3042ZM63.5376 41.5016H63.4693V41.5691H61.6248V42.3346C61.6248 42.3977 61.6155 42.4481 61.5976 42.4854L61.5435 42.5932L61.4058 42.6768L61.2837 42.7033C61.165 42.7033 61.0378 42.6526 60.9008 42.5526L60.6272 42.3454C60.1812 42.0155 59.8853 41.6576 59.7389 41.2728C59.7027 41.1985 59.68 41.1071 59.671 40.9981L59.6983 40.8988L59.7796 40.804L59.8897 40.7495L59.9995 40.7361H60.8187V40.0501L60.1764 40.012C59.8853 39.9937 59.5893 39.8657 59.2888 39.6291C59.0067 39.4205 58.8652 39.1051 58.8652 38.6871C58.8652 38.4956 58.8876 38.3355 58.9335 38.2082C59.1067 37.835 59.4116 37.6297 59.8491 37.5935H60.0133C60.332 37.5935 60.6955 37.7167 61.1061 37.9608C61.2871 38.0672 61.4196 38.1997 61.5021 38.3519C61.5842 38.5072 61.6248 38.6871 61.6248 38.8939V40.7361H63.5376V41.5016ZM60.8187 39.5746V38.5363L60.7773 38.4135L60.6817 38.3042C60.6186 38.2586 60.5641 38.2314 60.5182 38.2221L60.3406 38.1952C60.0584 38.1952 59.8446 38.2541 59.6983 38.3721C59.5893 38.4635 59.5348 38.6136 59.5348 38.8229C59.5348 38.9237 59.571 39.017 59.6438 39.1036C59.7162 39.1894 59.817 39.2742 59.9442 39.3555L60.3137 39.5063L60.6817 39.5608L60.7773 39.547L60.8187 39.5746ZM65.2858 38.3042H65.2175V38.3721H64.1523V44.971L63.3055 44.3429V38.3721H62.4717V37.5935H65.2858V38.3042ZM67.6352 38.3042H67.5677V38.3721H66.5014V44.971L65.6549 44.3429V38.3721H64.8219V37.5935H67.6352V38.3042ZM72.5539 38.3042H72.4849V38.3721H70.6009L70.696 38.8636L70.7505 39.3809C70.7505 40.3002 70.3911 41.1541 69.6715 41.9464C69.7652 42.1741 69.8899 42.3977 70.047 42.6164L70.5453 43.3326L71.1465 44.0007C71.2742 44.1458 71.5108 44.3332 71.8564 44.5609L71.1741 44.9576L70.7095 44.3978L70.3273 43.8775L69.8899 43.2494L69.5618 42.7582L68.9337 41.8013L68.6332 41.2687L68.4418 40.8723L68.3738 40.5028C68.3738 40.2942 68.4828 40.1886 68.7012 40.1886L69.794 40.1748V38.3721H67.3075V37.5935H72.5539V38.3042ZM78.019 38.3042H77.95V38.3721H76.8983V44.9576L76.0518 44.3978V40.367H73.8087C73.7359 40.367 73.6438 40.3901 73.534 40.4356L73.3329 40.626C73.2683 40.7178 73.2239 40.8085 73.1955 40.8988L73.1548 41.2411C73.1548 41.5512 73.2186 41.8692 73.3463 42.1973C73.5004 42.5891 73.715 42.9407 73.9879 43.2494L74.3297 43.6319C74.4212 43.7331 74.6171 43.9137 74.9176 44.1779L74.3156 44.4661C74.1614 44.419 74.0215 44.3019 73.8919 44.1104L73.2914 43.2031C72.9917 42.7492 72.7674 42.3249 72.623 41.9375C72.4759 41.5493 72.4032 41.2093 72.4032 40.9186C72.4032 40.6155 72.4539 40.3696 72.5539 40.1781C72.5804 40.1046 72.6267 40.0326 72.6905 39.959L72.8518 39.7511L73.0432 39.6015L73.2213 39.5063L73.3967 39.4794H76.0518V38.3721H72.0348V37.5935H78.019V38.3042Z" fill="white"/>
<path d="M11.22 65.4386H10.4V66.7186C10.4 67.0653 10.37 67.3386 10.31 67.5386C10.25 67.7386 10.1433 67.9153 9.99 68.0686C9.84333 68.2153 9.66 68.3286 9.44 68.4086C9.22 68.4886 8.93333 68.5453 8.58 68.5786L8.35 67.4786C8.61667 67.4386 8.79 67.3786 8.87 67.2986C8.94333 67.2253 8.99333 67.1419 9.02 67.0486C9.04667 66.9486 9.06 66.7819 9.06 66.5486V65.4386H7.02V67.0686C7.02 67.3219 7.03 67.5319 7.05 67.6986C7.07 67.8586 7.11333 67.9986 7.18 68.1186C7.24667 68.2319 7.34667 68.3386 7.48 68.4386C7.61333 68.5386 7.79333 68.6553 8.02 68.7886L9.42 69.5986C9.82667 69.8319 10.1 70.0653 10.24 70.2986C10.38 70.5253 10.45 70.8019 10.45 71.1286C10.45 71.3953 10.3933 71.6553 10.28 71.9086C10.1667 72.1619 10.0433 72.3719 9.91 72.5386L8.81 71.9086C8.88333 71.8353 8.94667 71.7353 9 71.6086C9.06 71.4819 9.09 71.3653 9.09 71.2586C9.09 71.1186 9.06667 71.0019 9.02 70.9086C8.97333 70.8153 8.88 70.7153 8.74 70.6086C8.60667 70.5086 8.40333 70.3786 8.13 70.2186L6.92 69.5186C6.66 69.3719 6.43667 69.2186 6.25 69.0586C6.07 68.8919 5.93 68.6953 5.83 68.4686C5.78333 68.3419 5.74667 68.1919 5.72 68.0186C5.69333 67.8453 5.68 67.6186 5.68 67.3386V65.4386H5V64.3386H11.22V65.4386ZM19.454 65.4386H16.234V66.8286C16.554 66.6419 16.9207 66.5486 17.334 66.5486C17.8073 66.5486 18.194 66.6953 18.494 66.9886C18.8007 67.2819 18.954 67.6886 18.954 68.2086C18.954 68.5019 18.8973 68.8286 18.784 69.1886C18.6773 69.5486 18.5007 69.9153 18.254 70.2886L17.084 69.6386C17.2373 69.4319 17.364 69.2186 17.464 68.9986C17.564 68.7786 17.614 68.5519 17.614 68.3186C17.614 68.0719 17.5607 67.8986 17.454 67.7986C17.354 67.6986 17.2207 67.6486 17.054 67.6486C16.9007 67.6486 16.7507 67.6953 16.604 67.7886C16.464 67.8819 16.3407 67.9819 16.234 68.0886V70.5586H14.894V69.2886C14.674 69.4153 14.4507 69.5119 14.224 69.5786C14.004 69.6453 13.7473 69.6786 13.454 69.6786C13.0873 69.6786 12.7507 69.6119 12.444 69.4786C12.144 69.3386 11.904 69.1353 11.724 68.8686C11.544 68.6019 11.454 68.2686 11.454 67.8686C11.454 67.4953 11.544 67.1753 11.724 66.9086C11.904 66.6353 12.154 66.4253 12.474 66.2786C12.794 66.1253 13.164 66.0486 13.584 66.0486C13.7707 66.0486 13.9573 66.0553 14.144 66.0686C14.3373 66.0819 14.4873 66.1053 14.594 66.1386L14.494 67.2486C14.2807 67.1953 14.044 67.1686 13.784 67.1686C13.4707 67.1686 13.2273 67.2319 13.054 67.3586C12.8807 67.4786 12.794 67.6486 12.794 67.8686C12.794 68.1353 12.8773 68.3186 13.044 68.4186C13.2107 68.5186 13.3907 68.5686 13.584 68.5686C13.864 68.5686 14.1107 68.5053 14.324 68.3786C14.544 68.2519 14.734 68.1053 14.894 67.9386V65.4386H11.084V64.3386H19.454V65.4386ZM30.1766 65.4386H26.9566V66.8286C27.2766 66.6419 27.6433 66.5486 28.0566 66.5486C28.53 66.5486 28.9166 66.6953 29.2166 66.9886C29.5233 67.2819 29.6766 67.6886 29.6766 68.2086C29.6766 68.5019 29.62 68.8286 29.5066 69.1886C29.4 69.5486 29.2233 69.9153 28.9766 70.2886L27.8066 69.6386C27.96 69.4319 28.0866 69.2186 28.1866 68.9986C28.2866 68.7786 28.3366 68.5519 28.3366 68.3186C28.3366 68.0719 28.2833 67.8986 28.1766 67.7986C28.0766 67.6986 27.9433 67.6486 27.7766 67.6486C27.6233 67.6486 27.4733 67.6953 27.3266 67.7886C27.1866 67.8819 27.0633 67.9819 26.9566 68.0886V70.5586H25.6166V69.2886C25.3966 69.4153 25.1733 69.5119 24.9466 69.5786C24.7266 69.6453 24.47 69.6786 24.1766 69.6786C23.81 69.6786 23.4733 69.6119 23.1666 69.4786C22.8666 69.3386 22.6266 69.1353 22.4466 68.8686C22.2666 68.6019 22.1766 68.2686 22.1766 67.8686C22.1766 67.4953 22.2666 67.1753 22.4466 66.9086C22.6266 66.6353 22.8766 66.4253 23.1966 66.2786C23.5166 66.1253 23.8866 66.0486 24.3066 66.0486C24.4933 66.0486 24.68 66.0553 24.8666 66.0686C25.06 66.0819 25.21 66.1053 25.3166 66.1386L25.2166 67.2486C25.0033 67.1953 24.7666 67.1686 24.5066 67.1686C24.1933 67.1686 23.95 67.2319 23.7766 67.3586C23.6033 67.4786 23.5166 67.6486 23.5166 67.8686C23.5166 68.1353 23.6 68.3186 23.7666 68.4186C23.9333 68.5186 24.1133 68.5686 24.3066 68.5686C24.5866 68.5686 24.8333 68.5053 25.0466 68.3786C25.2666 68.2519 25.4566 68.1053 25.6166 67.9386V65.4386H21.8066V64.3386H30.1766V65.4386ZM34.3091 71.2386C34.1757 71.0186 34.0457 70.7853 33.9191 70.5386C33.7924 70.2919 33.6857 70.0786 33.5991 69.8986C33.4257 69.9186 33.2291 69.9286 33.0091 69.9286C32.6957 69.9286 32.3857 69.8953 32.0791 69.8286C31.7724 69.7553 31.4924 69.6419 31.2391 69.4886C30.9857 69.3286 30.7824 69.1153 30.6291 68.8486C30.4824 68.5819 30.4091 68.2553 30.4091 67.8686C30.4091 67.5753 30.4624 67.3219 30.5691 67.1086C30.6824 66.8886 30.8324 66.7053 31.0191 66.5586C31.2324 66.3919 31.4857 66.2653 31.7791 66.1786C32.0791 66.0853 32.4091 66.0286 32.7691 66.0086V65.4386H30.0391V64.3386H35.7591V65.4386H34.1091V67.1086H33.5991C33.2124 67.1086 32.9124 67.1253 32.6991 67.1586C32.4924 67.1919 32.3124 67.2453 32.1591 67.3186C31.8791 67.4519 31.7391 67.6653 31.7391 67.9586C31.7391 68.2119 31.8424 68.4219 32.0491 68.5886C32.2557 68.7486 32.6124 68.8286 33.1191 68.8286C33.1391 68.8286 33.1624 68.8286 33.1891 68.8286C33.2224 68.8286 33.2591 68.8253 33.2991 68.8186C33.2857 68.7453 33.2791 68.6753 33.2791 68.6086C33.2791 68.3619 33.3691 68.1853 33.5491 68.0786C33.7291 67.9719 33.9224 67.9186 34.1291 67.9186C34.4824 67.9186 34.7524 68.0153 34.9391 68.2086C35.1257 68.3953 35.2191 68.6153 35.2191 68.8686C35.2191 69.1019 35.1657 69.2786 35.0591 69.3986C34.9591 69.5186 34.8324 69.6153 34.6791 69.6886C34.8724 70.0153 35.1124 70.3719 35.3991 70.7586L34.3091 71.2386ZM41.2752 65.4386V70.5586H39.9352V68.3486H38.0752V68.5186C38.0752 68.8053 38.0152 69.0086 37.8952 69.1286C37.7752 69.2486 37.6019 69.3086 37.3752 69.3086C37.2352 69.3086 37.0819 69.2653 36.9152 69.1786C36.7486 69.0853 36.5886 68.9653 36.4352 68.8186C36.2886 68.6719 36.1652 68.5153 36.0652 68.3486C35.9719 68.1753 35.9252 68.0119 35.9252 67.8586C35.9252 67.6853 35.9719 67.5419 36.0652 67.4286C36.1652 67.3086 36.3552 67.2486 36.6352 67.2486H36.7352V65.4386H35.6152V64.3386H42.2252V65.4386H41.2752ZM39.9352 65.4386H38.0752V67.2486H39.9352V65.4386ZM48.6103 67.2286C48.8236 67.2286 49.017 67.2219 49.1903 67.2086C49.3703 67.1886 49.5536 67.1553 49.7403 67.1086L49.8403 68.2386C49.6536 68.2719 49.4636 68.2953 49.2703 68.3086C49.0836 68.3219 48.9036 68.3286 48.7303 68.3286C48.3103 68.3286 47.947 68.2919 47.6403 68.2186C47.3403 68.1453 47.0936 68.0653 46.9003 67.9786C46.8336 68.0119 46.7636 68.0486 46.6903 68.0886C46.937 68.3686 47.2236 68.6619 47.5503 68.9686C47.877 69.2753 48.217 69.5719 48.5703 69.8586L47.7203 70.7286C47.1736 70.2286 46.6803 69.7553 46.2403 69.3086C45.807 68.8619 45.4736 68.4853 45.2403 68.1786C45.0936 67.9786 44.997 67.8086 44.9503 67.6686C44.9036 67.5286 44.8803 67.4019 44.8803 67.2886C44.8803 67.1153 44.937 66.9486 45.0503 66.7886C45.1703 66.6219 45.377 66.5386 45.6703 66.5386C45.977 66.5386 46.2403 66.6386 46.4603 66.8386C46.5336 66.7119 46.5836 66.5753 46.6103 66.4286C46.6436 66.2819 46.6603 66.1319 46.6603 65.9786C46.6603 65.7986 46.637 65.6186 46.5903 65.4386H44.5703V64.3386H49.7003V65.4386H47.9103C47.937 65.5319 47.957 65.6419 47.9703 65.7686C47.9903 65.8886 48.0003 66.0286 48.0003 66.1886C48.0003 66.3886 47.9803 66.5686 47.9403 66.7286C47.9003 66.8886 47.8436 67.0319 47.7703 67.1586C47.9036 67.1786 48.037 67.1953 48.1703 67.2086C48.3103 67.2219 48.457 67.2286 48.6103 67.2286ZM55.116 65.4386H54.166V70.5586H52.826V69.3086C52.5993 69.4353 52.3727 69.5286 52.146 69.5886C51.9193 69.6486 51.6493 69.6786 51.336 69.6786C50.9493 69.6786 50.5993 69.6119 50.286 69.4786C49.9793 69.3386 49.736 69.1353 49.556 68.8686C49.376 68.6019 49.286 68.2686 49.286 67.8686C49.286 67.3153 49.4827 66.8753 49.876 66.5486C50.2693 66.2153 50.7893 66.0486 51.436 66.0486C51.6493 66.0486 51.856 66.0553 52.056 66.0686C52.2627 66.0819 52.4193 66.1053 52.526 66.1386L52.426 67.2486C52.1993 67.1953 51.946 67.1686 51.666 67.1686C51.3193 67.1686 51.0593 67.2319 50.886 67.3586C50.7127 67.4786 50.626 67.6486 50.626 67.8686C50.626 68.1353 50.706 68.3186 50.866 68.4186C51.0327 68.5186 51.2293 68.5686 51.456 68.5686C51.7493 68.5686 52.006 68.5119 52.226 68.3986C52.4527 68.2853 52.6527 68.1353 52.826 67.9486V65.4386H48.916V64.3386H55.116V65.4386ZM58.3207 69.4486C58.814 69.4486 59.2507 69.3719 59.6307 69.2186C60.0174 69.0586 60.3174 68.8419 60.5307 68.5686C60.7507 68.2953 60.8607 67.9853 60.8607 67.6386C60.8607 67.4186 60.814 67.2253 60.7207 67.0586C60.6274 66.8919 60.464 66.8086 60.2307 66.8086C60.104 66.8086 60.004 66.8419 59.9307 66.9086C59.8574 66.9753 59.8207 67.0553 59.8207 67.1486C59.8207 67.2953 59.8807 67.4219 60.0007 67.5286C60.1207 67.6353 60.3207 67.7286 60.6007 67.8086L60.1007 68.6986C59.5807 68.5319 59.1974 68.3186 58.9507 68.0586C58.704 67.7986 58.5807 67.4986 58.5807 67.1586C58.5807 66.8386 58.6707 66.5719 58.8507 66.3586C59.0374 66.1386 59.3107 65.9919 59.6707 65.9186V65.4386H54.9707V64.3386H62.7107V65.4386H61.0107V65.9886C61.3774 66.1019 61.6674 66.3019 61.8807 66.5886C62.094 66.8753 62.2007 67.2519 62.2007 67.7186C62.2007 68.0586 62.1207 68.3986 61.9607 68.7386C61.8007 69.0719 61.5574 69.3786 61.2307 69.6586C60.904 69.9319 60.494 70.1519 60.0007 70.3186C59.514 70.4786 58.9407 70.5586 58.2807 70.5586C57.4607 70.5586 56.8574 70.4186 56.4707 70.1386C56.084 69.8519 55.8907 69.4853 55.8907 69.0386C55.8907 68.9186 55.9074 68.7986 55.9407 68.6786C55.9807 68.5519 56.0374 68.4319 56.1107 68.3186C55.8574 68.1786 55.6607 68.0086 55.5207 67.8086C55.3807 67.6019 55.3107 67.3686 55.3107 67.1086C55.3107 66.7086 55.4674 66.3953 55.7807 66.1686C56.1007 65.9353 56.544 65.8186 57.1107 65.8186C57.244 65.8186 57.404 65.8253 57.5907 65.8386C57.784 65.8519 57.9407 65.8753 58.0607 65.9086L57.9607 66.9486C57.8674 66.9153 57.7607 66.8919 57.6407 66.8786C57.5207 66.8586 57.3907 66.8486 57.2507 66.8486C56.8507 66.8486 56.6507 66.9686 56.6507 67.2086C56.6507 67.3019 56.694 67.3853 56.7807 67.4586C56.8674 67.5253 56.984 67.5753 57.1307 67.6086C57.3174 67.5619 57.524 67.5386 57.7507 67.5386C57.8374 67.5386 57.9274 67.5419 58.0207 67.5486C58.114 67.5553 58.184 67.5653 58.2307 67.5786L58.1207 68.5886C58.0874 68.5819 58.044 68.5786 57.9907 68.5786C57.944 68.5719 57.8874 68.5686 57.8207 68.5686C57.594 68.5686 57.4307 68.6019 57.3307 68.6686C57.2307 68.7286 57.1807 68.8253 57.1807 68.9586C57.1807 69.2853 57.5607 69.4486 58.3207 69.4486ZM68.0084 65.4386V70.5586H66.6684V67.5686H65.7584C65.3917 67.5686 65.1184 67.5853 64.9384 67.6186C64.765 67.6519 64.6217 67.7153 64.5084 67.8086C64.3617 67.9286 64.2884 68.0986 64.2884 68.3186C64.2884 68.5453 64.3917 68.7819 64.5984 69.0286C64.805 69.2686 65.1084 69.5386 65.5084 69.8386L64.6384 70.7286C64.3317 70.4686 64.0484 70.2019 63.7884 69.9286C63.535 69.6486 63.3317 69.3586 63.1784 69.0586C63.025 68.7519 62.9484 68.4319 62.9484 68.0986C62.9484 67.8586 62.9917 67.6419 63.0784 67.4486C63.1717 67.2553 63.2917 67.0953 63.4384 66.9686C63.6384 66.7953 63.8784 66.6686 64.1584 66.5886C64.445 66.5086 64.8484 66.4686 65.3684 66.4686H66.6684V65.4386H62.5684V64.3386H68.9484V65.4386H68.0084ZM70.9486 65.4386V70.5586H69.6086V65.4386H68.8086V64.3386H71.8986V65.4386H70.9486ZM82.6083 65.4386H79.3883V66.8286C79.7083 66.6419 80.0749 66.5486 80.4883 66.5486C80.9616 66.5486 81.3483 66.6953 81.6483 66.9886C81.9549 67.2819 82.1083 67.6886 82.1083 68.2086C82.1083 68.5019 82.0516 68.8286 81.9383 69.1886C81.8316 69.5486 81.6549 69.9153 81.4083 70.2886L80.2383 69.6386C80.3916 69.4319 80.5183 69.2186 80.6183 68.9986C80.7183 68.7786 80.7683 68.5519 80.7683 68.3186C80.7683 68.0719 80.7149 67.8986 80.6083 67.7986C80.5083 67.6986 80.3749 67.6486 80.2083 67.6486C80.0549 67.6486 79.9049 67.6953 79.7583 67.7886C79.6183 67.8819 79.4949 67.9819 79.3883 68.0886V70.5586H78.0483V69.2886C77.8283 69.4153 77.6049 69.5119 77.3783 69.5786C77.1583 69.6453 76.9016 69.6786 76.6083 69.6786C76.2416 69.6786 75.9049 69.6119 75.5983 69.4786C75.2983 69.3386 75.0583 69.1353 74.8783 68.8686C74.6983 68.6019 74.6083 68.2686 74.6083 67.8686C74.6083 67.4953 74.6983 67.1753 74.8783 66.9086C75.0583 66.6353 75.3083 66.4253 75.6283 66.2786C75.9483 66.1253 76.3183 66.0486 76.7383 66.0486C76.9249 66.0486 77.1116 66.0553 77.2983 66.0686C77.4916 66.0819 77.6416 66.1053 77.7483 66.1386L77.6483 67.2486C77.4349 67.1953 77.1983 67.1686 76.9383 67.1686C76.6249 67.1686 76.3816 67.2319 76.2083 67.3586C76.0349 67.4786 75.9483 67.6486 75.9483 67.8686C75.9483 68.1353 76.0316 68.3186 76.1983 68.4186C76.3649 68.5186 76.5449 68.5686 76.7383 68.5686C77.0183 68.5686 77.2649 68.5053 77.4783 68.3786C77.6983 68.2519 77.8883 68.1053 78.0483 67.9386V65.4386H74.2383V64.3386H82.6083V65.4386ZM83.2707 65.4386H82.4707V64.3386H83.0807C82.654 63.8119 82.2074 63.4119 81.7407 63.1386C81.2674 62.8586 80.7574 62.7186 80.2107 62.7186C79.8374 62.7186 79.5507 62.7953 79.3507 62.9486C79.144 63.0953 79.0407 63.2986 79.0407 63.5586C79.0407 63.7253 79.0674 63.8819 79.1207 64.0286C79.1674 64.1686 79.2274 64.2953 79.3007 64.4086H78.0007C77.9007 64.2153 77.824 64.0319 77.7707 63.8586C77.7174 63.6786 77.6907 63.4953 77.6907 63.3086C77.6907 62.7886 77.8907 62.3753 78.2907 62.0686C78.684 61.7553 79.254 61.5986 80.0007 61.5986C80.714 61.5986 81.3474 61.7219 81.9007 61.9686C82.4474 62.2153 82.9374 62.5486 83.3707 62.9686C83.804 63.3819 84.1974 63.8386 84.5507 64.3386H85.5607V65.4386H84.6107V70.5586H83.2707V65.4386ZM93.1104 68.4486C93.1104 68.9153 92.9571 69.2853 92.6504 69.5586C92.3437 69.8253 91.8937 69.9586 91.3004 69.9586C90.8804 69.9586 90.4871 69.8786 90.1204 69.7186C89.7604 69.5519 89.4137 69.2619 89.0804 68.8486C88.7537 68.4286 88.4271 67.8386 88.1004 67.0786L89.2504 66.6386C89.5237 67.3519 89.8171 67.8953 90.1304 68.2686C90.4437 68.6419 90.8004 68.8286 91.2004 68.8286C91.5871 68.8286 91.7804 68.6386 91.7804 68.2586C91.7804 67.9453 91.6737 67.6686 91.4604 67.4286C91.2337 67.4819 90.9837 67.5119 90.7104 67.5186L90.6504 66.4586C91.0437 66.4386 91.3104 66.3753 91.4504 66.2686C91.5904 66.1619 91.6604 66.0119 91.6604 65.8186C91.6604 65.6253 91.5937 65.4986 91.4604 65.4386C91.3271 65.3719 91.1771 65.3386 91.0104 65.3386C90.8037 65.3386 90.6037 65.3686 90.4104 65.4286C90.2237 65.4886 90.0404 65.5653 89.8604 65.6586L89.4904 64.6586C89.6837 64.5586 89.9304 64.4653 90.2304 64.3786C90.5371 64.2853 90.8704 64.2386 91.2304 64.2386C91.8037 64.2386 92.2404 64.3853 92.5404 64.6786C92.8404 64.9719 92.9904 65.3419 92.9904 65.7886C92.9904 66.2753 92.8104 66.6686 92.4504 66.9686C92.4771 67.0019 92.5037 67.0319 92.5304 67.0586C92.6171 67.0719 92.7104 67.0819 92.8104 67.0886C92.9104 67.0953 93.0237 67.0986 93.1504 67.0986C93.3504 67.0986 93.5371 67.0886 93.7104 67.0686C93.8837 67.0419 94.0504 66.9986 94.2104 66.9386V65.4386H93.5704V64.3386H99.4404V65.4386H98.5004V70.5586H97.1604V65.4386H95.5504V70.5586H94.2104V68.0486C94.0704 68.1019 93.9237 68.1386 93.7704 68.1586C93.6237 68.1719 93.4737 68.1786 93.3204 68.1786C93.2471 68.1786 93.1704 68.1753 93.0904 68.1686C93.1037 68.2619 93.1104 68.3553 93.1104 68.4486ZM97.2304 64.4086C97.1171 64.0153 97.0037 63.6953 96.8904 63.4486C96.7837 63.1953 96.6571 63.0119 96.5104 62.8986C96.3704 62.7786 96.1871 62.7186 95.9604 62.7186C95.8337 62.7186 95.7104 62.7319 95.5904 62.7586C95.4771 62.7853 95.3737 62.8153 95.2804 62.8486L94.9204 61.7986C95.0804 61.7319 95.2437 61.6819 95.4104 61.6486C95.5837 61.6153 95.7704 61.5986 95.9704 61.5986C96.2371 61.5986 96.4837 61.6353 96.7104 61.7086C96.9371 61.7753 97.1471 61.9053 97.3404 62.0986C97.5404 62.2919 97.7271 62.5753 97.9004 62.9486C98.0804 63.3153 98.2537 63.8019 98.4204 64.4086H97.2304ZM103.467 69.8386L102.597 70.7286C102.01 70.2286 101.484 69.7553 101.017 69.3086C100.55 68.8619 100.2 68.4853 99.9669 68.1786C99.8202 67.9786 99.7235 67.8086 99.6769 67.6686C99.6302 67.5286 99.6069 67.4019 99.6069 67.2886C99.6069 67.1153 99.6635 66.9486 99.7769 66.7886C99.8969 66.6219 100.104 66.5386 100.397 66.5386C100.73 66.5386 101.014 66.6586 101.247 66.8986C101.6 66.6653 101.777 66.3553 101.777 65.9686C101.777 65.7753 101.757 65.5986 101.717 65.4386H99.2969V64.3386H103.827V65.4386H103.027C103.054 65.5319 103.074 65.6419 103.087 65.7686C103.107 65.8886 103.117 66.0286 103.117 66.1886C103.117 66.6486 102.977 67.0386 102.697 67.3586C102.417 67.6719 102.02 67.9253 101.507 68.1186C101.767 68.3786 102.067 68.6619 102.407 68.9686C102.747 69.2753 103.1 69.5653 103.467 69.8386Z" fill="white"/>
</g>
</g>
<defs>
<clipPath id="clip0_983_1192">
<rect width="139.626" height="80" fill="white"/>
</clipPath>
</defs>
</svg>
